<?xml version="1.0" encoding="UTF-8"?>
<svg id="Expanded" xmlns="http://www.w3.org/2000/svg" viewBox="0 0 64 64">
  <path d="M57,54v-31c0-.15-.04-.29-.1-.42-.02-.04-.05-.07-.07-.1-.05-.09-.11-.16-.19-.23-.02-.01-.02-.03-.04-.05L32.6,4.2s-.09-.05-.13-.07c-.04-.02-.07-.04-.11-.06-.11-.04-.23-.07-.35-.07,0,0,0,0,0,0s0,0,0,0c-.12,0-.23.03-.35.07-.04.02-.07.04-.11.06-.04.02-.09.04-.13.07L7.4,22.2s-.02.03-.04.05c-.08.07-.14.14-.19.23-.02.04-.05.07-.07.1-.06.13-.1.27-.1.42v31c-1.65,0-3,1.35-3,3s1.35,3,3,3h50c1.65,0,3-1.35,3-3s-1.35-3-3-3ZM40.9,54c-.46-2.28-2.48-4-4.9-4h-3v-2.59l2.41-2.41h1.59c2.76,0,5-2.24,5-5v-2c0-.55-.45-1-1-1h-2c-2.76,0-5,2.24-5,5v1.59l-2,2-2-2v-1.59c0-2.76-2.24-5-5-5h-2c-.55,0-1,.45-1,1v2c0,2.76,2.24,5,5,5h1.59l2.41,2.41v2.59h-3c-2.41,0-4.43,1.72-4.9,4h-5.1v-21h28v21h-5.1ZM36,52c1.3,0,2.42.84,2.83,2h-13.66c.41-1.16,1.52-2,2.83-2h8ZM36,43v-1c0-1.65,1.35-3,3-3h1v1c0,1.65-1.35,3-3,3h-1ZM28,43h-1c-1.65,0-3-1.35-3-3v-1h1c1.65,0,3,1.35,3,3v1ZM9,24h7v7h-7v-7ZM55,24v7h-7v-7h7ZM33,22V7l20,15h-20ZM31,22H11L31,7v15ZM18,24h28v7h-28v-7ZM48,33h7v21h-7v-21ZM9,33h7v21h-7v-21ZM57,58H7c-.55,0-1-.45-1-1s.45-1,1-1h50c.55,0,1,.45,1,1s-.45,1-1,1Z"/>
</svg>