<?xml version="1.0" encoding="UTF-8"?>
<svg id="Layer_1" data-name="Layer 1" xmlns="http://www.w3.org/2000/svg" viewBox="0 0 258.43 263.43">
  <defs>
    <style>
      .cls-1 {
        fill: #010101;
      }

      .cls-2 {
        fill: none;
        stroke: #010101;
        stroke-miterlimit: 10;
        stroke-width: 10px;
      }
    </style>
  </defs>
  <line class="cls-2" x1="129.21" y1="92.27" x2="129.21" y2="258.46"/>
  <line class="cls-2" x1="217.82" y1="97.12" x2="128.51" y2="186.44"/>
  <line class="cls-2" x1="212.26" y1="258.46" x2="129.17" y2="175.36"/>
  <path class="cls-1" d="M10.34,149.89v-46.52h237.75v155.06h10.34V98.2c0-.78-.2-1.5-.51-2.17-.09-.2-.25-.35-.36-.54-.28-.44-.59-.84-.99-1.18-.08-.07-.12-.18-.2-.24L132.32,1.03c-.22-.16-.47-.24-.7-.36-.19-.1-.37-.22-.58-.3-.58-.22-1.18-.36-1.79-.36-.01,0-.02,0-.03,0s-.02,0-.03,0c-.61,0-1.21.14-1.79.36-.21.08-.39.2-.58.3-.23.12-.48.2-.7.36L2.07,94.07c-.09.06-.12.17-.2.24-.4.34-.71.74-.99,1.18-.12.19-.27.34-.36.54-.31.66-.51,1.39-.51,2.17v160.23h10.34v-108.54ZM134.38,15.51l103.37,77.53h-103.37V15.51ZM124.05,15.51v77.53H20.67L124.05,15.51Z"/>
  <line class="cls-2" x1="258.43" y1="258.43" y2="258.43"/>
</svg>