<?xml version="1.0" encoding="UTF-8"?>
<svg id="Layer_1" data-name="Layer 1" xmlns="http://www.w3.org/2000/svg" viewBox="0 0 258.43 263.43">
  <defs>
    <style>
      .cls-1 {
        fill: #010101;
      }
    </style>
  </defs>
  <path class="cls-1" d="M257.92,96.04c-.09-.2-.25-.35-.36-.54-.28-.44-.59-.84-.99-1.18-.08-.07-.12-.18-.2-.24L132.32,1.03c-.22-.16-.47-.24-.7-.36-.19-.1-.37-.22-.58-.3-.58-.22-1.18-.36-1.79-.36-.01,0-.02,0-.03,0s-.02,0-.03,0c-.61,0-1.21.14-1.79.36-.21.08-.39.2-.58.3-.23.12-.48.2-.7.36L2.07,94.07c-.09.06-.12.17-.2.24-.4.34-.71.74-.99,1.18-.12.19-.27.34-.36.54-.31.66-.51,1.39-.51,2.17v155.23h0v10h258.43V98.2c0-.78-.2-1.5-.51-2.17ZM134.38,15.51l103.37,77.53h-103.37V15.51ZM134.21,103.37h70.29l-70.13,70.13-.16-.16v-69.97ZM124.05,15.51v77.53H20.67L124.05,15.51ZM10.34,253.43V103.37h113.88v150.06H10.34ZM134.21,253.43v-65.63l.16-.16,65.79,65.79h-65.95ZM214.3,253.43l-72.86-72.86,77.2-77.2h29.45v150.06h-33.79Z"/>
</svg>