<svg width="54" height="54" viewBox="0 0 54 54" fill="none" xmlns="http://www.w3.org/2000/svg">
<rect x="1" y="1" width="52" height="52" stroke="#8D9D7E" stroke-width="2"/>
<line x1="27" y1="2" x2="27" y2="52" stroke="#8D9D7E" stroke-width="2"/>
<path fill-rule="evenodd" clip-rule="evenodd" d="M49 38H31V7H49V38ZM45.1982 19.4023C44.7554 19.0728 44.1287 19.1648 43.7988 19.6074L34.9932 31.4385C34.6634 31.8815 34.7552 32.5081 35.1982 32.8379C35.6413 33.1674 36.268 33.0757 36.5977 32.6328L45.4033 20.8018C45.7327 20.3588 45.6411 19.732 45.1982 19.4023ZM44.1982 10.4023C43.7554 10.0728 43.1287 10.1648 42.7988 10.6074L33.9932 22.4385C33.6634 22.8815 33.7552 23.5081 34.1982 23.8379C34.6413 24.1674 35.268 24.0757 35.5977 23.6328L44.4033 11.8018C44.7327 11.3588 44.6411 10.732 44.1982 10.4023Z" fill="#ADBCA2"/>
<path fill-rule="evenodd" clip-rule="evenodd" d="M23 38H5V7H23V38ZM19.1982 19.4023C18.7554 19.0728 18.1287 19.1648 17.7988 19.6074L8.99316 31.4385C8.6634 31.8815 8.75521 32.5081 9.19824 32.8379C9.64125 33.1674 10.268 33.0757 10.5977 32.6328L19.4033 20.8018C19.7327 20.3588 19.6411 19.732 19.1982 19.4023ZM18.1982 10.4023C17.7554 10.0728 17.1287 10.1648 16.7988 10.6074L7.99316 22.4385C7.6634 22.8815 7.75521 23.5081 8.19824 23.8379C8.64125 24.1674 9.26797 24.0757 9.59766 23.6328L18.4033 11.8018C18.7327 11.3588 18.6411 10.732 18.1982 10.4023Z" fill="#ADBCA2"/>
</svg>
