<svg width="84" height="84" viewBox="0 0 84 84" fill="none" xmlns="http://www.w3.org/2000/svg">
<path d="M42.0522 39.6022C41.5678 39.6022 41.0939 39.746 40.6911 40.0152C40.2882 40.2843 39.9743 40.6669 39.7888 41.1145C39.6033 41.5622 39.5546 42.055 39.6491 42.5303C39.744 43.0056 39.9771 43.442 40.3197 43.7847C40.6624 44.1273 41.0992 44.3608 41.5741 44.4553C42.0494 44.5498 42.5422 44.5011 42.9899 44.3156C43.4375 44.1301 43.8201 43.8162 44.0892 43.4133C44.3584 43.0105 44.5022 42.5369 44.5022 42.0522C44.5022 41.4026 44.2439 40.7792 43.7847 40.3197C43.3252 39.8605 42.7022 39.6022 42.0522 39.6022ZM43.2772 17.5522C54.3022 17.5522 54.5472 26.2987 48.7407 29.1897C47.662 29.8294 46.7433 30.7071 46.0555 31.7559C45.3678 32.8047 44.9285 33.9968 44.7717 35.2412C45.9432 35.7273 46.9778 36.4928 47.7852 37.4707C56.7522 32.5707 66.5522 34.5062 66.5522 43.2772C66.5522 54.3022 57.7812 54.5472 54.9147 48.7407C54.2564 47.6623 53.3642 46.7457 52.3041 46.059C51.2439 45.3719 50.0427 44.932 48.7897 44.7717C48.2976 45.94 47.5332 46.9732 46.5602 47.7852C51.4602 56.8257 49.5002 66.5522 40.7292 66.5522C29.8022 66.5522 29.5327 57.7812 35.3392 54.8902C36.4004 54.242 37.3062 53.3684 37.9922 52.331C38.6782 51.2936 39.1276 50.1183 39.3082 48.8877C38.1074 48.418 37.0511 47.6406 36.2457 46.6337C27.2052 51.4847 17.5522 49.5737 17.5522 40.8272C17.5522 29.8022 26.2252 29.5327 29.1162 35.3392C29.7653 36.413 30.6492 37.3258 31.7015 38.009C32.7539 38.6918 33.9473 39.1279 35.1922 39.2837C35.664 38.1045 36.4421 37.0724 37.4462 36.2947C32.5707 27.3522 34.5062 17.5522 43.2282 17.5522H43.2772Z" fill="#32A1C0" fill-opacity="0.5"/>
<circle cx="42.0001" cy="42" r="33.4776" stroke="#8D9D7E" stroke-width="2"/>
</svg>
