<svg width="54" height="54" viewBox="0 0 54 54" fill="none" xmlns="http://www.w3.org/2000/svg">
<path d="M27.0411 25.1222C26.6618 25.1222 26.2906 25.2349 25.9752 25.4456C25.6597 25.6564 25.4138 25.956 25.2686 26.3066C25.1233 26.6571 25.0852 27.043 25.1592 27.4153C25.2335 27.7875 25.416 28.1293 25.6844 28.3976C25.9527 28.6659 26.2948 28.8488 26.6667 28.9228C27.0389 28.9968 27.4248 28.9587 27.7754 28.8134C28.126 28.6681 28.4255 28.4223 28.6363 28.1068C28.8471 27.7913 28.9597 27.4205 28.9597 27.0409C28.9597 26.5321 28.7575 26.044 28.3979 25.6841C28.038 25.3245 27.5501 25.1222 27.0411 25.1222ZM28.0004 7.85455C36.6343 7.85455 36.8261 14.7041 32.279 16.9681C31.4342 17.469 30.7147 18.1564 30.1762 18.9777C29.6376 19.799 29.2936 20.7326 29.1708 21.707C30.0882 22.0878 30.8984 22.6872 31.5307 23.453C38.5529 19.6158 46.2275 21.1315 46.2275 28.0002C46.2275 36.634 39.3587 36.8259 37.1139 32.2787C36.5984 31.4343 35.8997 30.7164 35.0695 30.1786C34.2393 29.6406 33.2986 29.2961 32.3174 29.1705C31.932 30.0855 31.3334 30.8946 30.5714 31.5305C34.4087 38.6102 32.8738 46.2272 26.005 46.2272C17.4479 46.2272 17.2369 39.3585 21.784 37.0945C22.6151 36.5869 23.3244 35.9028 23.8616 35.0904C24.3989 34.278 24.7508 33.3576 24.8922 32.3939C23.9518 32.026 23.1246 31.4173 22.4939 30.6287C15.4142 34.4276 7.85474 32.9311 7.85474 26.0815C7.85474 17.4477 14.6467 17.2367 16.9107 21.7838C17.419 22.6247 18.1112 23.3395 18.9353 23.8746C19.7594 24.4093 20.694 24.7508 21.6689 24.8728C22.0384 23.9494 22.6477 23.1411 23.4341 22.5321C19.616 15.5291 21.1317 7.85455 27.962 7.85455H28.0004Z" fill="#D28C31"/>
<circle cx="27" cy="27" r="26" stroke="#D0DEC8" stroke-width="2"/>
</svg>
