<svg width="54" height="54" viewBox="0 0 54 54" fill="none" xmlns="http://www.w3.org/2000/svg">
<g clip-path="url(#clip0_6_308)">
<path d="M27.0404 25.1503C26.6667 25.1503 26.3011 25.2612 25.9904 25.4689C25.6796 25.6765 25.4374 25.9716 25.2943 26.3169C25.1512 26.6622 25.1137 27.0424 25.1866 27.4091C25.2597 27.7757 25.4396 28.1124 25.7039 28.3768C25.9682 28.6411 26.3052 28.8212 26.6716 28.8941C27.0382 28.967 27.4184 28.9294 27.7637 28.7863C28.109 28.6432 28.4042 28.4011 28.6118 28.0903C28.8194 27.7795 28.9304 27.4142 28.9304 27.0403C28.9304 26.5391 28.7311 26.0583 28.3769 25.7038C28.0224 25.3495 27.5418 25.1503 27.0404 25.1503ZM27.9854 8.1403C36.4904 8.1403 36.6794 14.8876 32.2001 17.1178C31.3679 17.6113 30.6592 18.2884 30.1286 19.0974C29.5981 19.9065 29.2592 20.8261 29.1383 21.7861C30.042 22.1611 30.8401 22.7516 31.463 23.506C38.3804 19.726 45.9404 21.2191 45.9404 27.9853C45.9404 36.4903 39.1742 36.6793 36.9629 32.2C36.455 31.3681 35.7668 30.661 34.949 30.1312C34.1311 29.6012 33.2045 29.2618 32.2379 29.1382C31.8583 30.0394 31.2686 30.8364 30.518 31.4628C34.298 38.4369 32.786 45.9403 26.0198 45.9403C17.5904 45.9403 17.3825 39.1741 21.8618 36.9439C22.6804 36.4438 23.3792 35.7699 23.9084 34.9696C24.4376 34.1693 24.7843 33.2627 24.9236 32.3134C23.9972 31.951 23.1824 31.3513 22.5611 30.5746C15.587 34.3168 8.14038 32.8426 8.14038 26.0952C8.14038 17.5903 14.831 17.3824 17.0612 21.8617C17.5619 22.69 18.2438 23.3942 19.0555 23.9212C19.8673 24.448 20.788 24.7844 21.7484 24.9045C22.1123 23.9949 22.7126 23.1987 23.4872 22.5987C19.7261 15.7003 21.2192 8.1403 27.9476 8.1403H27.9854Z" fill="#D28C31"/>
<circle cx="26.9998" cy="27" r="25.597" stroke="#4D5D3E" stroke-width="2"/>
</g>
<defs>
<clipPath id="clip0_6_308">
<rect width="54" height="54" fill="white"/>
</clipPath>
</defs>
</svg>
