<svg width="54" height="54" viewBox="0 0 54 54" fill="none" xmlns="http://www.w3.org/2000/svg">
<path d="M27.0409 25.1222C26.6615 25.1222 26.2904 25.2349 25.9749 25.4457C25.6594 25.6564 25.4136 25.956 25.2683 26.3066C25.123 26.6571 25.0849 27.0431 25.1589 27.4153C25.2332 27.7875 25.4158 28.1293 25.6841 28.3976C25.9524 28.6659 26.2945 28.8488 26.6664 28.9228C27.0387 28.9968 27.4246 28.9587 27.7751 28.8134C28.1257 28.6681 28.4253 28.4223 28.6361 28.1068C28.8468 27.7913 28.9595 27.4205 28.9595 27.0409C28.9595 26.5321 28.7572 26.044 28.3976 25.6841C28.0377 25.3245 27.5498 25.1222 27.0409 25.1222ZM28.0002 7.85455C36.634 7.85455 36.8259 14.7041 32.2787 16.9681C31.434 17.469 30.7145 18.1564 30.1759 18.9777C29.6373 19.799 29.2933 20.7326 29.1705 21.7071C30.0879 22.0878 30.8981 22.6872 31.5305 23.453C38.5527 19.6158 46.2272 21.1315 46.2272 28.0002C46.2272 36.634 39.3585 36.8259 37.1137 32.2787C36.5981 31.4343 35.8995 30.7164 35.0693 30.1787C34.239 29.6406 33.2984 29.2961 32.3171 29.1705C31.9317 30.0855 31.3331 30.8946 30.5711 31.5305C34.4084 38.6102 32.8735 46.2272 26.0048 46.2272C17.4477 46.2272 17.2366 39.3585 21.7838 37.0945C22.6148 36.5869 23.3242 35.9028 23.8614 35.0904C24.3986 34.278 24.7506 33.3576 24.892 32.3939C23.9516 32.026 23.1244 31.4173 22.4937 30.6287C15.4139 34.4276 7.85449 32.9311 7.85449 26.0815C7.85449 17.4477 14.6465 17.2367 16.9105 21.7838C17.4188 22.6247 18.1109 23.3395 18.935 23.8746C19.7591 24.4093 20.6938 24.7508 21.6687 24.8728C22.0381 23.9494 22.6475 23.1411 23.4338 22.5321C19.6157 15.5291 21.1315 7.85455 27.9618 7.85455H28.0002Z" fill="#5190A1"/>
<circle cx="27" cy="27" r="26" stroke="#D0DEC8" stroke-width="2"/>
</svg>
