<svg width="54" height="54" viewBox="0 0 54 54" fill="none" xmlns="http://www.w3.org/2000/svg">
<g clip-path="url(#clip0_4_61)">
<path d="M27.0403 25.1503C26.6666 25.1503 26.301 25.2612 25.9902 25.4689C25.6795 25.6765 25.4373 25.9716 25.2942 26.3169C25.1511 26.6622 25.1135 27.0424 25.1864 27.4091C25.2596 27.7757 25.4394 28.1124 25.7038 28.3768C25.9681 28.6411 26.3051 28.8212 26.6714 28.8941C27.0381 28.967 27.4183 28.9294 27.7636 28.7863C28.1089 28.6432 28.404 28.4011 28.6117 28.0903C28.8193 27.7795 28.9303 27.4142 28.9303 27.0403C28.9303 26.5391 28.731 26.0583 28.3768 25.7038C28.0222 25.3495 27.5416 25.1503 27.0403 25.1503ZM27.9853 8.1403C36.4903 8.1403 36.6793 14.8876 32.2 17.1178C31.3678 17.6113 30.6591 18.2884 30.1285 19.0974C29.598 19.9065 29.2591 20.8261 29.1382 21.7861C30.0419 22.1611 30.84 22.7516 31.4629 23.506C38.3803 19.726 45.9403 21.2191 45.9403 27.9853C45.9403 36.4903 39.1741 36.6793 36.9628 32.2C36.4549 31.3681 35.7667 30.661 34.9488 30.1312C34.131 29.6012 33.2044 29.2618 32.2378 29.1382C31.8581 30.0394 31.2685 30.8364 30.5179 31.4628C34.2979 38.4369 32.7859 45.9403 26.0197 45.9403C17.5903 45.9403 17.3824 39.1741 21.8617 36.9439C22.6803 36.4438 23.3791 35.7699 23.9083 34.9696C24.4375 34.1693 24.7841 33.2627 24.9235 32.3134C23.9971 31.951 23.1822 31.3513 22.561 30.5746C15.5869 34.3168 8.14026 32.8426 8.14026 26.0952C8.14026 17.5903 14.8309 17.3824 17.0611 21.8617C17.5618 22.69 18.2436 23.3942 19.0554 23.9212C19.8672 24.448 20.7879 24.7844 21.7483 24.9045C22.1122 23.9949 22.7124 23.1987 23.4871 22.5987C19.726 15.7003 21.2191 8.1403 27.9475 8.1403H27.9853Z" fill="#D28C31"/>
<circle cx="27" cy="27" r="25.597" stroke="white" stroke-opacity="0.5" stroke-width="2"/>
</g>
<defs>
<clipPath id="clip0_4_61">
<rect width="54" height="54" fill="white"/>
</clipPath>
</defs>
</svg>
